<?xml version="1.0" encoding="UTF-8"?>
<svg xmlns="http://www.w3.org/2000/svg" xmlns:xlink="http://www.w3.org/1999/xlink" viewBox="0 0 64 64" version="1.1" width="128px" height="128px">
<g id="surface1">
<path style=" " d="M 33.40625 3.699219 C 27.804688 3.699219 22.808594 7.171875 20.730469 12.421875 C 20.25 12.363281 19.78125 12.335938 19.316406 12.335938 C 13.585938 12.335938 8.644531 16.375 7.367188 22.023438 C 2.9375 24 0 28.535156 0 33.484375 C 0 40.386719 5.507813 46 12.273438 46 L 19.519531 46 L 17.84375 50.660156 C 17.730469 50.96875 17.777344 51.308594 17.964844 51.574219 C 18.148438 51.839844 18.457031 52 18.78125 52 L 26.441406 52 L 23.277344 62.671875 C 23.152344 63.085938 23.308594 63.527344 23.660156 63.777344 C 23.835938 63.894531 24.035156 63.953125 24.234375 63.953125 C 24.445313 63.953125 24.65625 63.890625 24.832031 63.757813 L 43.597656 49.800781 C 43.945313 49.546875 44.085938 49.09375 43.949219 48.6875 C 43.8125 48.277344 43.433594 48 43 48 L 36.972656 48 L 37.773438 45.976563 C 37.8125 45.980469 37.847656 46 37.886719 46 L 51.726563 46 C 58.492188 46 64 40.386719 64 33.484375 C 64 28.566406 61.226563 24.175781 56.875 22.128906 C 56.269531 16.03125 51.378906 11.265625 45.378906 10.921875 C 42.96875 6.449219 38.433594 3.699219 33.40625 3.699219 Z M 33.40625 5.699219 C 37.863281 5.699219 41.867188 8.242188 43.859375 12.339844 C 44.023438 12.679688 44.371094 12.894531 44.75 12.898438 C 50.175781 12.933594 54.644531 17.308594 54.925781 22.855469 C 54.945313 23.242188 55.1875 23.582031 55.546875 23.730469 C 59.46875 25.339844 62 29.167969 62 33.484375 C 62 34.4375 61.863281 35.359375 61.628906 36.238281 C 61.457031 36.097656 61.242188 36 61 36 C 60.445313 36 60 36.449219 60 37 L 60 39 C 60 39.183594 60.0625 39.34375 60.144531 39.488281 C 58.289063 42.210938 55.210938 44 51.726563 44 L 38.554688 44 L 39.347656 42 L 43 42 C 45.207031 42 47 40.207031 47 38 C 47 35.792969 45.207031 34 43 34 L 21 34 C 18.792969 34 17 35.792969 17 38 C 17 40.191406 18.773438 41.972656 20.960938 41.996094 L 20.238281 44 L 12.273438 44 C 8.789063 44 5.710938 42.210938 3.851563 39.488281 C 3.9375 39.34375 4 39.183594 4 39 L 4 37 C 4 36.449219 3.554688 36 3 36 C 2.757813 36 2.542969 36.097656 2.367188 36.238281 C 2.136719 35.359375 2 34.4375 2 33.484375 C 2 29.164063 4.65625 25.222656 8.609375 23.671875 C 8.929688 23.546875 9.164063 23.261719 9.226563 22.921875 C 10.128906 17.945313 14.375 14.335938 19.316406 14.335938 C 19.925781 14.335938 20.558594 14.398438 21.203125 14.519531 C 21.695313 14.613281 22.183594 14.328125 22.34375 13.851563 C 23.941406 8.976563 28.390625 5.699219 33.40625 5.699219 Z M 32.703125 8.03125 C 29.332031 8.3125 26.339844 10.394531 24.898438 13.460938 C 24.664063 13.960938 24.878906 14.554688 25.378906 14.792969 C 25.515625 14.855469 25.660156 14.886719 25.800781 14.886719 C 26.179688 14.886719 26.539063 14.671875 26.707031 14.3125 C 27.847656 11.886719 30.207031 10.246094 32.871094 10.027344 C 33.417969 9.980469 33.828125 9.496094 33.78125 8.945313 C 33.738281 8.394531 33.269531 7.988281 32.703125 8.03125 Z M 36.414063 8.53125 C 36.023438 8.546875 35.664063 8.792969 35.519531 9.179688 C 35.328125 9.699219 35.589844 10.273438 36.109375 10.46875 C 36.714844 10.691406 37.292969 10.996094 37.820313 11.367188 C 37.996094 11.492188 38.199219 11.550781 38.394531 11.550781 C 38.710938 11.550781 39.019531 11.40625 39.214844 11.128906 C 39.53125 10.679688 39.425781 10.054688 38.972656 9.734375 C 38.304688 9.261719 37.574219 8.878906 36.808594 8.59375 C 36.675781 8.542969 36.542969 8.523438 36.414063 8.53125 Z M 8 36 C 7.445313 36 7 36.449219 7 37 L 7 39 C 7 39.550781 7.445313 40 8 40 C 8.554688 40 9 39.550781 9 39 L 9 37 C 9 36.449219 8.554688 36 8 36 Z M 13 36 C 12.445313 36 12 36.449219 12 37 L 12 39 C 12 39.550781 12.445313 40 13 40 C 13.554688 40 14 39.550781 14 39 L 14 37 C 14 36.449219 13.554688 36 13 36 Z M 21 36 L 23.121094 36 L 21.675781 40.011719 C 21.65625 40.011719 21.640625 40 21.621094 40 L 21 40 C 19.898438 40 19 39.101563 19 38 C 19 36.898438 19.898438 36 21 36 Z M 25.246094 36 L 39.570313 36 L 34.570313 48.632813 C 34.449219 48.941406 34.488281 49.289063 34.671875 49.5625 C 34.859375 49.835938 35.167969 50 35.5 50 L 39.980469 50 L 26.046875 60.359375 L 28.738281 51.28125 C 28.832031 50.980469 28.769531 50.65625 28.582031 50.402344 C 28.394531 50.148438 28.097656 50 27.78125 50 L 20.203125 50 Z M 41.71875 36 L 43 36 C 44.101563 36 45 36.898438 45 38 C 45 39.101563 44.101563 40 43 40 L 40.140625 40 Z M 51 36 C 50.445313 36 50 36.449219 50 37 L 50 39 C 50 39.550781 50.445313 40 51 40 C 51.554688 40 52 39.550781 52 39 L 52 37 C 52 36.449219 51.554688 36 51 36 Z M 56 36 C 55.445313 36 55 36.449219 55 37 L 55 39 C 55 39.550781 55.445313 40 56 40 C 56.554688 40 57 39.550781 57 39 L 57 37 C 57 36.449219 56.554688 36 56 36 Z "/>
</g>
</svg>
